<?xml version="1.0" encoding="UTF-8"?>
<svg id="a" data-name="Layer 1" xmlns="http://www.w3.org/2000/svg" viewBox="0 0 2000 2000">
  <defs>
    <style>
      .b {
        fill: #fff;
      }
    </style>
  </defs>
  <g>
    <path class="b" d="m773.12,851.7l12.87-73.2h-442.44l-12.89,73.2-52.34,296.76-5.63,31.97-7.27,41.23h442.66l12.87-73.2,20.98-119.33,12.87-73.2h-291.87l-24.63,139.74h123.97l11.73-66.54h84.87l-21.04,119.33h-285.17l52.32-296.76h368.15Zm-256.13,207.64h-21.06s11.83-67.08,11.83-67.08h21.06s-11.83,67.08-11.83,67.08Z"/>
    <polygon class="b" points="512.12 923.17 468.73 923.17 476.32 879.78 519.71 879.78 512.12 923.17"/>
    <polygon class="b" points="592.42 923.17 549.03 923.17 556.63 879.78 600.02 879.78 592.42 923.17"/>
    <polygon class="b" points="672.73 923.17 629.34 923.17 636.94 879.78 680.33 879.78 672.73 923.17"/>
    <polygon class="b" points="801.04 1358.29 76.57 1358.6 89.31 1286.36 813.72 1286.36 801.04 1358.29"/>
    <polygon class="b" points="914.74 713.49 190.27 713.8 203.01 641.56 927.42 641.56 914.74 713.49"/>
  </g>
  <g>
    <g>
      <path class="b" d="m1093.17,977.37c32.94,0,61.1,7.7,84.48,23.1,6.35,4.42,13.25,10.56,20.71,18.4,4.77,5.28,8.53,9.84,11.28,13.69-.14,0-15.45,12.83-45.93,38.5-20.35-26.1-46.93-39.14-79.73-39.14-36.36,0-67.85,15.19-94.45,45.56-12.63,15.83-20.55,32.87-23.77,51.12l-.41,2.35c-4.88,27.67,1.19,51.48,18.2,71.44,16.59,19.11,39.58,28.66,68.96,28.66,38.22,0,67.83-16.68,88.82-50.05h-84.06c-.29,0-.4-.14-.35-.43l9.09-51.55c.17-.14.32-.21.47-.21h146.74c-1.06,6.84-1.85,11.69-2.35,14.55-4.7,26.67-17.7,53.05-38.98,79.14-35.07,41.21-78.85,61.82-131.33,61.82-44.92,0-79.87-14.47-104.86-43.42-7.79-9.98-13.2-18.54-16.22-25.67-11.79-26.95-15.19-54.54-10.22-82.78l1.02-5.78c6.36-36.08,24.74-68.73,55.13-97.97,36.55-34.22,79.14-51.34,127.77-51.34Z"/>
      <path class="b" d="m1283.37,977.15h166.84c.29,0,.4.14.35.43l-9.92,56.26c-.05.29-.22.43-.5.43h-166.84c-.29,0-.4-.14-.35-.43l9.92-56.26c.05-.29.22-.43.5-.43Zm-19.88,112.73h166.84c.29,0,.4.14.35.43l-9.77,55.4c-.05.29-.22.43-.5.43h-109.09l-14.22,80.64h109.09c.26.14.38.29.35.43l-9.99,56.68c-.05.29-.22.43-.5.43h-166.84c-.29,0-.4-.14-.35-.43l34.13-193.58c.05-.29.22-.43.5-.43Z"/>
      <path class="b" d="m1492.77,977.15h166.84c.29,0,.4.14.35.43l-9.92,56.26c-.05.29-.22.43-.5.43h-166.84c-.29,0-.4-.14-.35-.43l9.92-56.26c.05-.29.22-.43.5-.43Zm-19.88,112.73h166.84c.29,0,.4.14.35.43l-9.77,55.4c-.05.29-.22.43-.5.43h-109.09l-14.22,80.64h109.09c.26.14.38.29.35.43l-9.99,56.68c-.05.29-.22.43-.5.43h-166.84c-.29,0-.4-.14-.35-.43l34.13-193.58c.05-.29.22-.43.5-.43Z"/>
      <path class="b" d="m1761.5,1099.29h60.11l-.04.21c-.68,1.43-26.9,44.21-78.67,128.34h102.46c.26.14.38.29.35.43l-9.81,55.61c-.05.29-.22.43-.5.43h-187.38l-.39-.21,113.4-184.6.47-.21Zm-50.4-122.99h185.88c-.92,2-12.67,21.32-35.25,57.97h-160.85c-.29,0-.4-.14-.35-.43l10.07-57.11c.19-.29.36-.43.5-.43Z"/>
    </g>
    <g>
      <path class="b" d="m1686.09,796.06l-14.82,17.78c-4.18-7.2-10.17-10.81-17.95-10.81-4.18,0-8.13,1.42-11.85,4.27-3.72,2.85-5.93,6.36-6.62,10.55-.46,2.9.09,5.49,1.66,7.76,1.57,2.27,3.78,4.12,6.62,5.58,2.85,1.46,6.01,2.94,9.5,4.45,3.49,1.51,6.91,3.28,10.28,5.32,3.37,2.03,6.36,4.42,8.98,7.15,2.61,2.73,4.53,6.4,5.75,10.98,1.22,4.59,1.36,9.85.44,15.78-2.21,13.37-7.84,24.2-16.91,32.51-9.06,8.31-20.22,12.46-33.47,12.46-16.73,0-28.88-8.54-36.43-25.62l19.17-16.21c.93,5.35,3.28,9.88,7.06,13.6,3.78,3.72,8.28,5.58,13.51,5.58s9.53-1.86,13.25-5.58c3.72-3.72,5.98-8.19,6.8-13.42.35-2.44.23-4.67-.35-6.71-.58-2.03-1.34-3.69-2.27-4.97-.93-1.28-2.38-2.56-4.36-3.84-1.98-1.28-3.6-2.21-4.88-2.79-1.28-.58-3.2-1.33-5.75-2.27-.82-.35-1.46-.64-1.92-.87-4.3-1.97-7.9-3.92-10.81-5.84-2.91-1.92-5.55-4.27-7.93-7.06-2.38-2.79-3.98-6.1-4.79-9.94-.81-3.83-.81-8.19,0-13.07,1.74-11.04,6.86-20.36,15.34-27.98,8.48-7.61,18.24-11.42,29.29-11.42,6.04,0,12.35,1.37,18.91,4.1,6.56,2.73,11.42,6.25,14.56,10.55Z"/>
      <path class="b" d="m1793.47,916.34l2.44-81.58h-.35l-43.06,83.32h-8.89l-15.52-83.32h-.35l-24.58,81.58h-25.8l43.58-134.92h18.13l18.65,86.64,44.8-86.64h18.48l-1.74,134.92h-25.8Z"/>
      <path class="b" d="m1923.51,796.06l-14.82,17.78c-4.18-7.2-10.17-10.81-17.95-10.81-4.18,0-8.13,1.42-11.85,4.27-3.72,2.85-5.93,6.36-6.62,10.55-.46,2.9.09,5.49,1.66,7.76,1.57,2.27,3.78,4.12,6.62,5.58,2.85,1.46,6.01,2.94,9.5,4.45,3.49,1.51,6.91,3.28,10.28,5.32,3.37,2.03,6.36,4.42,8.98,7.15,2.61,2.73,4.53,6.4,5.75,10.98,1.22,4.59,1.36,9.85.44,15.78-2.21,13.37-7.84,24.2-16.91,32.51-9.06,8.31-20.22,12.46-33.47,12.46-16.73,0-28.88-8.54-36.43-25.62l19.17-16.21c.93,5.35,3.28,9.88,7.06,13.6,3.78,3.72,8.28,5.58,13.51,5.58s9.53-1.86,13.25-5.58c3.72-3.72,5.98-8.19,6.8-13.42.35-2.44.23-4.67-.35-6.71-.58-2.03-1.34-3.69-2.27-4.97-.93-1.28-2.38-2.56-4.36-3.84-1.98-1.28-3.6-2.21-4.88-2.79-1.28-.58-3.2-1.33-5.75-2.27-.82-.35-1.46-.64-1.92-.87-4.3-1.97-7.9-3.92-10.81-5.84-2.91-1.92-5.55-4.27-7.93-7.06-2.38-2.79-3.98-6.1-4.79-9.94-.81-3.83-.81-8.19,0-13.07,1.74-11.04,6.86-20.36,15.34-27.98,8.48-7.61,18.24-11.42,29.29-11.42,6.04,0,12.35,1.37,18.91,4.1,6.56,2.73,11.42,6.25,14.56,10.55Z"/>
    </g>
  </g>
</svg>